<?xml version="1.0" encoding="utf-8"?>
<!-- Generator: Adobe Illustrator 20.1.0, SVG Export Plug-In . SVG Version: 6.00 Build 0)  -->
<svg version="1.1" id="Layer_1" xmlns="http://www.w3.org/2000/svg" xmlns:xlink="http://www.w3.org/1999/xlink" x="0px" y="0px"
	 viewBox="0 0 317.4 37" style="enable-background:new 0 0 317.4 37;" xml:space="preserve">
<style type="text/css">
	.st0{fill:#FFFFFF;}
</style>
<g>
	<g>
		<path d="M289.9,34.6c1.1-0.1,1.4-0.3,1.9-1.4l5-11.1l5.1,11.1c0.5,1.1,0.7,1.2,1.9,1.4v0.1h-5.3v-0.1c0.9-0.1,1.4-0.2,1.4-0.8
			c0-0.3-0.1-0.6-0.3-1l-1-2.1h-4.9l-0.8,1.9c-0.1,0.3-0.4,0.8-0.4,1.1c0,0.6,0.4,0.8,1.5,0.9v0.1h-4.1V34.6z M298.3,30.1l-2.2-4.8
			l-2.1,4.8H298.3z"/>
		<path d="M304,34.6c1.2-0.2,1.3-0.5,1.3-2v-4c0-1.4-0.6-1.4-1.4-1.1v-0.2l3.1-1.1v1.5c0.7-0.9,1-1.5,2.2-1.5c0.8,0,1.2,0.6,1.2,1
			c0,0.7-0.4,1-0.9,1c-0.4,0-0.7-0.1-0.9-0.4c-0.2-0.2-0.3-0.3-0.6-0.3c-0.3,0-0.5,0.2-0.9,0.8v4.3c0,1.5,0.3,1.8,1.4,1.9v0.1H304
			V34.6z"/>
		<path d="M312.1,32.9V27h-1.4v-0.3c1.3-0.4,2.7-1.7,2.9-2.8h0.1v2.6h2V27h-2v5.1c0,1.4,0.5,1.7,1.2,1.7c0.6,0,0.8-0.3,1.2-0.8
			l0.1,0.1c-0.5,0.9-1.2,1.8-2.3,1.8C312.8,35,312.1,34,312.1,32.9z"/>
	</g>
	<g>
		<g>
			<path d="M34.8,11.7c-0.9-2.2-2.2-4-3.8-5.6c-1.6-1.6-3.5-2.8-5.6-3.7C23.3,1.5,21,1,18.6,1s-4.8,0.5-7,1.4C9.4,3.3,7.5,4.6,6,6.1
				c-1.6,1.6-2.8,3.4-3.7,5.6C1.4,13.9,1,16.2,1,18.6c0,2.5,0.4,4.8,1.3,6.9c0.9,2.1,2.1,4,3.7,5.5c1.6,1.6,3.4,2.8,5.6,3.7
				c2.2,0.9,4.5,1.3,7,1.3s4.8-0.4,6.9-1.3c2.1-0.9,4-2.1,5.6-3.7c1.6-1.5,2.8-3.4,3.8-5.5c0.9-2.1,1.4-4.4,1.4-6.9
				C36.2,16.2,35.8,13.9,34.8,11.7z M12.1,19.3c-0.2,1.6-1.2,2.9-3,2.9c-1.4,0-2.3-0.9-2.4-2.2c0-0.2,0-0.6,0-0.8L7,15.1h1.4L8,19.3
				c-0.1,0.9,0.3,1.6,1.2,1.6c0.9,0,1.4-0.7,1.5-1.5l0.4-4.3h1.4L12.1,19.3z M18.8,17.1c-0.5-0.7-1.2-0.8-1.8-0.8
				c-1.5,0-2.3,1-2.4,2.3c-0.1,1.2,0.5,2.3,1.9,2.3c0.6,0,1.3-0.2,2-0.9l-0.2,1.7c-0.7,0.4-1.3,0.5-1.9,0.5c-2.3,0-3.4-1.7-3.2-3.6
				c0.2-2,1.5-3.7,3.9-3.7c0.6,0,1.2,0.1,1.8,0.5L18.8,17.1z M23.7,22.1h-4.1l0.6-7h1.4l-0.5,5.7h2c0.1,0,0.6,0,0.7,0
				C23.8,20.8,23.7,22.1,23.7,22.1z M29.1,22.1L28.8,21h-2.6l-0.5,1.1h-1.5l3.7-7.3l0.1,0l2.6,7.3H29.1z"/>
			<path d="M27.8,17.4L27.8,17.4c0,0.1-0.1,0.2-0.1,0.3c0,0-0.9,2.1-0.9,2.1h1.7c0,0-0.5-1.8-0.6-2.1C27.8,17.6,27.8,17.5,27.8,17.4
				z"/>
		</g>
		<path d="M42.3,10.4h0.2c0.6,2.3,1.9,3.3,3.8,3.3c1.3,0,2.3-0.6,2.3-2.1c0-1.2-0.6-1.8-3.1-2.9c-2-1-3.2-1.7-3.2-3.7
			c0-1.6,1.3-3,3.5-3c0.6,0,1.3,0.1,1.9,0.4c0.3,0.1,0.6,0.2,0.8,0.2c0.4,0,0.8-0.2,0.8-0.5h0.2v3.9h-0.2c-0.6-2.4-2-3.3-3.5-3.3
			c-1.3,0-2,0.7-2,1.8c0,1.3,0.8,1.8,3.1,2.9c2,0.9,3.3,1.9,3.3,3.6c0,2.1-1.7,3.5-4,3.5c-0.7,0-1.4-0.2-2-0.4
			c-0.4-0.2-0.7-0.3-1-0.3c-0.6,0-0.8,0.3-0.9,0.7h-0.2V10.4z"/>
		<path d="M51.6,10.2c0-2.4,1.6-4.4,4.3-4.4c1.8,0,2.8,1.1,2.8,1.8c0,0.5-0.4,0.9-0.9,0.9c-0.6,0-0.9-0.5-1-1.1
			c-0.1-0.6-0.4-1.1-1.2-1.1c-1.8,0-2.2,1.8-2.2,3.4c0,1.6,0.9,3.4,2.7,3.4c1.2,0,2.1-0.5,2.8-1.9l0.1,0.1c-0.6,1.6-1.9,3.2-3.7,3.2
			C53.3,14.4,51.6,12.5,51.6,10.2z"/>
		<path d="M59.3,14c1.2-0.2,1.4-0.4,1.4-1.9V3.8c0-0.9-0.5-1.2-1.3-1V2.6l2.9-1v5.9c0.8-0.7,1.7-1.6,2.9-1.6c1.4,0,2.1,1,2.1,2.4
			v3.9c0,1.5,0.2,1.8,1.3,1.9v0.1h-4.4V14c1.2-0.2,1.4-0.4,1.4-1.9V8.6c0-1.2-0.4-1.7-1.4-1.7c-0.8,0-1.4,0.5-1.9,1v4.2
			c0,1.5,0.2,1.8,1.3,1.9v0.1h-4.4V14z"/>
		<path d="M69.2,10.1c0-2.4,1.8-4.3,4.2-4.3s4.2,1.8,4.2,4.3c0,2.4-1.8,4.3-4.2,4.3C71,14.4,69.2,12.5,69.2,10.1z M75.7,10.6
			c0-1.8-0.8-4.3-2.6-4.3c-1.2,0-1.9,1.2-1.9,3.2c0,1.8,0.8,4.3,2.6,4.3C74.9,13.9,75.7,12.6,75.7,10.6z"/>
		<path d="M79,10.1c0-2.4,1.8-4.3,4.2-4.3s4.2,1.8,4.2,4.3c0,2.4-1.8,4.3-4.2,4.3C80.8,14.4,79,12.5,79,10.1z M85.5,10.6
			c0-1.8-0.8-4.3-2.6-4.3c-1.2,0-1.9,1.2-1.9,3.2c0,1.8,0.8,4.3,2.6,4.3C84.7,13.9,85.5,12.6,85.5,10.6z"/>
		<path d="M87.8,14c1.2-0.2,1.4-0.4,1.4-1.9V3.8c0-1.3-0.6-1.2-1.4-1V2.6l3.1-1.1v10.5c0,1.5,0.2,1.8,1.3,1.9v0.1h-4.4V14z"/>
		<path d="M97.2,10.1c0-2.4,1.8-4.3,4.2-4.3c2.4,0,4.2,1.8,4.2,4.3c0,2.4-1.8,4.3-4.2,4.3C99,14.4,97.2,12.5,97.2,10.1z M103.7,10.6
			c0-1.8-0.8-4.3-2.6-4.3c-1.2,0-1.9,1.2-1.9,3.2c0,1.8,0.8,4.3,2.6,4.3C102.9,13.9,103.7,12.6,103.7,10.6z"/>
		<path d="M106.3,14c1.1-0.1,1.2-0.4,1.2-1.9V6.5h-1.3V6h1.3V5.3c0-1.6,0.9-3.7,3.3-3.7c1.2,0,2.3,0.6,2.3,1.4
			c0,0.5-0.2,0.8-0.9,0.8c-0.5,0-0.9-0.5-1.2-1c-0.2-0.4-0.3-0.6-0.8-0.6c-0.5,0-1,0.4-1,1.5V6h1.7v0.5h-1.7v5.5
			c0,1.5,0.1,1.7,1.3,1.9v0.2h-4.2V14z"/>
		<path d="M118,12.3V6.5h-1.4V6.2c1.3-0.4,2.6-1.6,2.9-2.8h0.1V6h1.9v0.5h-1.9v5c0,1.4,0.5,1.7,1.2,1.7c0.6,0,0.8-0.3,1.2-0.8
			l0.1,0.1c-0.5,0.9-1.2,1.8-2.2,1.8C118.7,14.4,118,13.4,118,12.3z"/>
		<path d="M122.4,14c1.2-0.2,1.4-0.4,1.4-1.9V3.8c0-0.9-0.5-1.2-1.3-1V2.6l2.9-1v5.9c0.8-0.7,1.7-1.6,2.9-1.6c1.4,0,2.1,1,2.1,2.4
			v3.9c0,1.5,0.2,1.8,1.3,1.9v0.1h-4.4V14c1.2-0.2,1.4-0.4,1.4-1.9V8.6c0-1.2-0.4-1.7-1.4-1.7c-0.8,0-1.4,0.5-1.9,1v4.2
			c0,1.5,0.2,1.8,1.3,1.9v0.1h-4.4V14z"/>
		<path d="M132.2,10.2c0-2.1,1.3-4.4,3.6-4.4c2.2,0,3.5,1.6,3.5,3.3h-5.5c0,2.2,1.2,3.9,2.9,3.9c0.9,0,1.9-0.3,2.7-1.7l0.1,0.1
			c-0.6,1.6-1.8,3-3.6,3C133.9,14.4,132.2,12.5,132.2,10.2z M137.4,8.5c-0.1-1-0.6-2.1-1.7-2.1c-1,0-1.8,1-1.9,2.1H137.4z"/>
		<path d="M49.3,34.8l-1-2.8h-4.6l-1,2.8h-2.7l4.8-12.5h2.4l4.7,12.5H49.3z M46.7,27.3c-0.2-0.7-0.5-1.5-0.6-1.9
			c-0.1,0.5-0.4,1.2-0.6,1.9l-0.8,2.3h2.9L46.7,27.3z"/>
		<path d="M60.9,34.8l-2.2-4.5h-2.5v4.5h-2.5V22.3h5.8c2.4,0,4.3,1.3,4.3,4c0,1.9-0.8,3.1-2.4,3.7l2.4,4.9H60.9z M59.4,24.7h-3.3
			v3.2h3.3c1.2,0,1.8-0.5,1.8-1.6C61.2,25.2,60.5,24.7,59.4,24.7z"/>
		<path d="M71.2,24.7v10h-2.5v-10h-3.6v-2.5h9.7v2.5H71.2z"/>
		<path d="M80.8,35c-2.1,0-3.9-0.9-4.9-2.3l1.8-1.6c0.9,1,2,1.4,3.2,1.4c1.5,0,2.2-0.4,2.2-1.4c0-0.8-0.4-1.2-2.8-1.7
			c-2.3-0.5-3.9-1.3-3.9-3.7c0-2.3,2-3.7,4.5-3.7c1.9,0,3.4,0.7,4.5,2l-1.8,1.7c-0.8-0.8-1.7-1.3-2.8-1.3c-1.3,0-1.8,0.6-1.8,1.1
			c0,0.8,0.5,1,2.5,1.5c2,0.5,4.2,1.1,4.2,3.9C85.7,33.3,84.2,35,80.8,35z"/>
		<path d="M100.5,34.8l-1-2.8H95l-1,2.8h-2.7l4.8-12.5h2.4l4.7,12.5H100.5z M97.9,27.3c-0.2-0.7-0.5-1.5-0.6-1.9
			c-0.1,0.5-0.4,1.2-0.6,1.9l-0.8,2.3h2.9L97.9,27.3z"/>
		<path d="M112.6,34.8l-4.6-6.8c-0.3-0.5-0.7-1.1-0.9-1.4c0,0.5,0,2,0,2.7v5.5h-2.5V22.3h2.4l4.4,6.6c0.3,0.5,0.7,1.1,0.9,1.4
			c0-0.5,0-2,0-2.7v-5.3h2.5v12.5H112.6z"/>
		<path d="M121.2,34.8h-3.7V22.3h3.9c3.6,0,6.2,1.7,6.2,6.2C127.5,32.9,124.4,34.8,121.2,34.8z M121.2,24.7h-1.3v7.6h1.2
			c2.6,0,3.8-1.5,3.8-3.8C125,26,123.9,24.7,121.2,24.7z"/>
		<path d="M142.1,34.8l-1-2.8h-4.6l-1,2.8h-2.7l4.8-12.5h2.4l4.7,12.5H142.1z M139.5,27.3c-0.2-0.7-0.5-1.5-0.6-1.9
			c-0.1,0.5-0.4,1.2-0.6,1.9l-0.8,2.3h2.9L139.5,27.3z"/>
		<path d="M153.7,34.8l-2.2-4.5H149v4.5h-2.5V22.3h5.8c2.4,0,4.3,1.3,4.3,4c0,1.9-0.8,3.1-2.4,3.7l2.4,4.9H153.7z M152.2,24.7H149
			v3.2h3.3c1.2,0,1.8-0.5,1.8-1.6C154,25.2,153.4,24.7,152.2,24.7z"/>
		<path d="M166,25.9c-0.4-0.9-1.2-1.4-2.3-1.4c-1.9,0-2.9,1.6-2.9,4c0,2.2,1.1,4,3,4c1.1,0,1.8-0.5,2.4-1.6l2.1,1.2
			c-0.9,1.8-2.4,2.8-4.6,2.8c-3.3,0-5.5-2.5-5.5-6.4c0-3.8,2.3-6.4,5.5-6.4c2.4,0,3.8,1.1,4.6,2.8L166,25.9z"/>
		<path d="M177.9,34.8v-5.2h-5.1v5.2h-2.5V22.3h2.5v4.8h5.1v-4.8h2.5v12.5H177.9z"/>
		<path d="M183,34.8V22.3h2.5v12.5H183z"/>
		<path d="M193.6,24.7v10h-2.5v-10h-3.6v-2.5h9.7v2.5H193.6z"/>
		<path d="M199.3,34.8V22.3h8.7v2.4h-6.2v2.2h3.6v2.4h-3.6v3h6.4v2.4H199.3z"/>
		<path d="M217.3,25.9c-0.4-0.9-1.2-1.4-2.3-1.4c-1.9,0-2.9,1.6-2.9,4c0,2.2,1.1,4,3,4c1.1,0,1.8-0.5,2.4-1.6l2.1,1.2
			c-0.9,1.8-2.4,2.8-4.6,2.8c-3.3,0-5.5-2.5-5.5-6.4c0-3.8,2.3-6.4,5.5-6.4c2.4,0,3.8,1.1,4.6,2.8L217.3,25.9z"/>
		<path d="M227.3,24.7v10h-2.5v-10h-3.6v-2.5h9.7v2.5H227.3z"/>
		<path d="M238,35c-3,0-5-2-5-5.7v-7h2.5v7c0,2,1,3.3,2.6,3.3c1.6,0,2.6-1.2,2.6-3.2v-7h2.5v7C243,32.9,241.2,35,238,35z"/>
		<path d="M252.7,34.8l-2.2-4.5H248v4.5h-2.5V22.3h5.8c2.4,0,4.3,1.3,4.3,4c0,1.9-0.8,3.1-2.4,3.7l2.4,4.9H252.7z M251.2,24.7H248
			v3.2h3.3c1.2,0,1.8-0.5,1.8-1.6C253,25.2,252.3,24.7,251.2,24.7z"/>
		<path d="M257.9,34.8V22.3h8.7v2.4h-6.2v2.2h3.6v2.4h-3.6v3h6.4v2.4H257.9z"/>
		<path d="M276.3,24.8c0-0.4,0.1-0.8,0.2-1.2c0.2-0.4,0.4-0.7,0.6-0.9s0.6-0.5,0.9-0.6c0.4-0.2,0.8-0.2,1.2-0.2s0.8,0.1,1.2,0.2
			c0.4,0.2,0.7,0.4,0.9,0.6c0.3,0.3,0.5,0.6,0.6,0.9c0.2,0.4,0.2,0.8,0.2,1.2c0,0.4-0.1,0.8-0.2,1.2c-0.2,0.4-0.4,0.7-0.6,0.9
			c-0.3,0.3-0.6,0.5-0.9,0.6c-0.4,0.2-0.8,0.2-1.2,0.2s-0.8-0.1-1.2-0.2c-0.4-0.2-0.7-0.4-0.9-0.6c-0.3-0.3-0.5-0.6-0.6-0.9
			C276.4,25.6,276.3,25.2,276.3,24.8z"/>
		<path d="M276.3,32.4c0-0.4,0.1-0.8,0.2-1.2c0.2-0.4,0.4-0.7,0.6-0.9c0.3-0.3,0.6-0.5,0.9-0.6c0.4-0.2,0.8-0.2,1.2-0.2
			s0.8,0.1,1.2,0.2c0.4,0.2,0.7,0.4,0.9,0.6c0.3,0.3,0.5,0.6,0.6,0.9c0.2,0.4,0.2,0.8,0.2,1.2c0,0.4-0.1,0.8-0.2,1.2
			c-0.2,0.4-0.4,0.7-0.6,0.9c-0.3,0.3-0.6,0.5-0.9,0.6s-0.8,0.2-1.2,0.2s-0.8-0.1-1.2-0.2c-0.4-0.2-0.7-0.4-0.9-0.6
			c-0.3-0.3-0.5-0.6-0.6-0.9S276.3,32.8,276.3,32.4z"/>
	</g>
</g>
</svg>
