<svg xmlns="http://www.w3.org/2000/svg" viewBox="0 0 153.83 156.47"><g id="Layer_2" data-name="Layer 2"><g id="Layer_1-2" data-name="Layer 1"><path d="M77.23,0c.9.27,1.62.46,2.32.71C94.08,5.84,108.63,11,123.13,16.16a5,5,0,0,1,2.62,2.27C134.94,38.27,144,58.16,153.19,78a5.76,5.76,0,0,1,.25,4.72c-4.89,14.07-9.66,28.18-14.58,42.24a5.38,5.38,0,0,1-2.38,2.82Q107.68,142,78.77,155.94a6,6,0,0,1-4,.34Q53.6,150,32.44,143.53a4.19,4.19,0,0,1-2.26-1.92q-15-30-29.83-60.19a4.44,4.44,0,0,1-.11-3.19q9.09-24.6,18.38-49.11a5.79,5.79,0,0,1,2.59-3C39.06,17.71,57,9.38,74.85,1,75.67.64,76.51.31,77.23,0ZM133,82.05C114.36,57.76,95.86,33.73,77.42,9.65c-1-1.35-1.87-1.11-3.13-.64-9.78,3.68-19.55,7.35-29.37,10.91a4.64,4.64,0,0,0-3,2.92c-6.29,15.68-12.59,31.36-19.09,47A5.39,5.39,0,0,0,23.63,76Q46.42,105.92,69,136c3.12,4.14,6.28,8.26,9.51,12.5Z"/></g></g></svg>