<svg xmlns="http://www.w3.org/2000/svg" viewBox="0 0 127.74 213.24"><g id="Layer_2" data-name="Layer 2"><g id="Layer_1-2" data-name="Layer 1"><path d="M77.07,64.21c5.93,2.26,8.41,5.89,8,11.57a10,10,0,0,1-8,9.31c-5.73,1.37-9.25-.61-13.34-7.5-2.11,4.73-3.51,6.1-7.21,7.42,1.88,1.81,4.25,3.6,6,5.89s1.79,5.46.94,8.37c-1.36,4.64-5.66,7.55-10.83,7.39a10.41,10.41,0,0,1-9.94-8.24C41.53,93,44,88.86,50.64,85.23c-4-1.13-6.53-3.74-8-8-2,5.57-5.69,8.48-11.34,8.24-4.6-.2-7.48-2.62-10-8.14-1.29,4-3.7,6.74-7.19,7.69,1.89,1.83,4.25,3.6,5.94,5.87,1.88,2.54,1.69,5.73.82,8.65-1.44,4.85-5.75,7.45-11.23,7.11A10.29,10.29,0,0,1,.29,98.36c-1.11-5.55,1.34-9.65,7.8-13.08C2.42,83,.1,79.81.19,74.37c.07-4.81,2.75-8.23,7.27-9.83-1.95-1.93-4.44-3.78-6.1-6.2C-.46,55.71-.27,52.45.84,49.45c1.7-4.59,5.92-7,11.1-6.58A10.33,10.33,0,0,1,21.18,51c1.08,6.09-1.12,9.91-7.82,13.27a11.62,11.62,0,0,1,8,8.13c1.9-5.43,5.46-8.42,11-8.3,5.11.1,8.41,3,10.25,8.26,2.13-5.75,6-8.71,11.76-8.23,4.75.39,7.84,3.26,9.48,8.23,1.57-4,4-6.9,8-8C65,60.42,62.57,56,64.2,50.35a10.48,10.48,0,0,1,10.74-7.54c4.82.17,9,3.51,10,7.88C86.22,56.71,83.76,61.08,77.07,64.21Z"/><path d="M42.74,34.78c-3.5,6.91-7.43,9.14-13.39,7.77A10.68,10.68,0,0,1,21.23,32.2a10.8,10.8,0,0,1,8.26-10.54c5.49-1.33,9.73,1.11,13.25,7.76a11.37,11.37,0,0,1,7.2-7.6,57.15,57.15,0,0,1-5.84-5.51c-1.84-2.24-1.85-5.13-1.3-7.87A10.57,10.57,0,0,1,52.44.06c4.92-.52,9,2.36,11.43,8.21C65.81,3.18,69.17,0,74.6.08s8.73,3.09,10.28,7.59c1.57-1.86,2.9-4.33,5-5.62A12.77,12.77,0,0,1,97.06.25a10.13,10.13,0,0,1,9.31,8.63c.85,5.65-1.61,9.64-7.26,12.33a53.71,53.71,0,0,1,5.9,5.63c1.85,2.33,1.84,5.31,1.11,8.12a10.59,10.59,0,0,1-10.93,8,10.79,10.79,0,0,1-10.07-9.12c-.93-5,2-9.68,8-12.36-4-1.44-6.71-3.87-7.9-8.24-2,5.12-5.15,8.27-10.63,8.31s-8.71-3-10.74-8.08c-1.5,4-3.87,6.76-7.34,7.69a54.83,54.83,0,0,1,5.89,5.52c1.79,2.22,1.91,5.08,1.29,7.86a10.57,10.57,0,0,1-9.84,8.41C48.83,43.22,44.81,40.34,42.74,34.78Z"/><path d="M64,136.1A11.58,11.58,0,0,1,72.25,128c-3.75-1.28-6.56-3.18-7.55-6.5a15.61,15.61,0,0,1-.4-7.31c1-4.65,5.88-7.92,10.64-7.69,4.93.24,9.29,3.93,10,8.49,1,6.12-1.44,10.26-7.91,13,5.64,2,8.49,5.81,8,11.71-.38,5-3.42,7.84-8.16,9.62,4.18,1.32,6.78,3.93,7.91,7.35,1.72-1.93,3.18-4.56,5.41-5.78a14.92,14.92,0,0,1,7.84-1.31c4,.26,7.7,4.38,8.28,8.48.79,5.67-1.57,9.42-7.4,12.3a52.7,52.7,0,0,1,5.85,5.24c1.93,2.29,2,5.28,1.4,8.1a10.52,10.52,0,0,1-11,8.26,10.64,10.64,0,0,1-10.19-9.23c-.86-5,2.21-9.68,8.14-12.11a11.91,11.91,0,0,1-8-8.27c-2.42,6.63-7,9.18-13.48,8-3.79-.67-7.19-4.51-7.73-8.24-.87-5.92,1-9.1,7.8-13A11.53,11.53,0,0,1,64,141.31c-3.32,6.81-7.54,9.16-13.56,7.71-4.81-1.16-7.87-5.38-7.82-10.77a10.33,10.33,0,0,1,8.34-10.1C55.47,127.35,60.7,128.2,64,136.1Z"/><path d="M119.57,127.91c6.69,3.27,9.05,7.48,7.76,13.49a10.68,10.68,0,0,1-10.16,8,10.52,10.52,0,0,1-10.58-8.1c-1.37-5.64,1-9.94,7.67-13.4-5.42-2-8.28-5.68-7.86-11.53.37-5,3.25-8,8.18-9.67-4.06-1.4-6.88-3.79-7.85-7.35-1.83,2-3.51,4.32-5.7,6-2.42,1.85-5.54,1.69-8.39,1-4.58-1.13-7.83-5.91-7.61-10.76s3.88-9.24,8.25-10c6-1.1,10.17,1.35,13,7.63,1-1.61,1.84-3.47,3.17-4.82s3.11-2.08,4.67-3.08c-5.66-2.38-7.9-5.54-7.76-11,.12-4.78,2.71-8,7.94-10-7-4.2-9.2-8.15-7.62-13.77A10.18,10.18,0,0,1,117,42.79a10.6,10.6,0,0,1,10.26,7.57c1.55,5.78-.64,9.8-7.57,13.88,5.5,2.25,7.83,5.4,7.81,10.54s-2.26,8.29-8,10.56c5.38,2.08,8.38,5.68,8,11.6-.33,5.07-3.37,7.9-8,9.74,5.66,2.15,8.56,6,8,12C127,123.43,124.18,126.24,119.57,127.91Z"/><path d="M50.81,191.74a10.87,10.87,0,0,1-8-7.75c-4,7.06-8.19,9.22-14.2,7.47a10.74,10.74,0,0,1,1.71-20.81c5.12-1,9.66,1.84,12.31,7.93,2.7-6.59,7.42-9.23,14.17-7.49,4.09,1.06,7.1,5.36,7.2,9.77.12,5.25-2.47,8.83-7.87,10.82a28.48,28.48,0,0,1,4.78,3.16,25.89,25.89,0,0,1,3,4.61c3.76-6.65,8-8.92,13.8-7.27a10.82,10.82,0,0,1-.57,20.71c-5.65,1.32-10-1.12-13-7.07a60,60,0,0,1-5.42,5.8c-2.24,1.87-5.16,1.72-7.88,1.28A10.7,10.7,0,0,1,42.61,204C42,198.39,44.4,194.72,50.81,191.74Z"/><path d="M8.15,149.24c-7.33-2.56-8.63-8.05-7.8-13A10.22,10.22,0,0,1,10.71,128c5.08,0,9.51,3.33,10.43,7.88,1.27,6.23-1.32,10.78-7,13.11,1.9,1.83,4.67,3.49,5.86,5.93a14.15,14.15,0,0,1,.89,8.38c-.93,4.78-5.44,7.47-10.76,7.33A10.18,10.18,0,0,1,.37,162.5C-.95,156.88,1.52,152.68,8.15,149.24Z"/><path d="M42.65,117.56c0,6.11-4.62,10.51-10.88,10.46a10.59,10.59,0,0,1-10.56-10.68,10.87,10.87,0,0,1,11-10.81A10.56,10.56,0,0,1,42.65,117.56Z"/></g></g></svg>