<svg xmlns="http://www.w3.org/2000/svg" viewBox="0 0 165.42 189.29"><g id="Layer_2" data-name="Layer 2"><g id="Layer_1-2" data-name="Layer 1"><path d="M35.34,118.24V47.45c-4.69-.52-8.54-2.34-10.58-6.79a11,11,0,0,1-1.12-4c-.15-4.23-.06-8.48-.06-12.91H141.69v94.53c3.78,0,7.34.23,10.86,0,8.06-.64,12.91,6.3,12.77,12.63-.35,15.49-.11,31-.12,46.49,0,7-4.85,12-11.87,12q-70.58,0-141.14,0C4.92,189.28,0,184.34,0,177q0-23.37,0-46.74c0-7.28,4.76-12,12-12.05,6.81,0,13.63,0,20.44,0Zm94.21,11.64V35.51H58.94v11.8H47.58v71.05H59.07v11.52Z"/><path d="M141.64,11.2c7.1-.55,10.59-4.7,12-11.2.75,2,1.57,4,2.23,6a4.45,4.45,0,0,0,3.25,3.32c2,.55,3.87,1.43,6.29,2.35-2.38,1-4.35,1.86-6.41,2.51a4,4,0,0,0-3,2.91c-.62,2-1.49,4-2.49,6.65-1.06-2.68-1.78-4.89-2.82-6.94a5.79,5.79,0,0,0-2.43-2.42c-2-1-4.23-1.7-6.35-2.52Z"/><path d="M129.42,14.58c-.69-1-1.91-1.92-1.9-2.87a3.22,3.22,0,0,1,2.24-2.25,3.12,3.12,0,0,1,2.34,2c.1.94-1,2-1.55,3Z"/><path d="M156.16,36c-.86.6-1.65,1.57-2.59,1.73-1.53.27-2.38-.66-2.42-2.34s1-2.53,2.44-2.33c.92.14,1.72,1.15,2.57,1.76Z"/></g></g></svg>