<svg xmlns="http://www.w3.org/2000/svg" viewBox="0 0 170.24 170.02"><g id="Layer_2" data-name="Layer 2"><g id="Layer_1-2" data-name="Layer 1"><path d="M170.24,170H0V.4c7.89-2.08,16.69,5,21.25,17.35A21.34,21.34,0,0,1,29.17,4.49,18.74,18.74,0,0,1,41.08,0q44-.08,88,0c8.69,0,17.06,6.92,19.32,15.7a6.8,6.8,0,0,0,.62,1.68A21.84,21.84,0,0,1,156.37,5,19.94,19.94,0,0,1,170.24,0Zm-42.89-42.69V42.73c-11.42-.79-18.19-7-21.11-17.91C103.89,34.62,97,41.46,88.51,42.4c-5.67.62-11.14,0-15.91-3.57a22.19,22.19,0,0,1-8.85-13.91c-.37,1-.57,1.44-.7,1.91C60.45,36,53.73,41.72,44.34,42.45c-2.1.16-1.89,1.31-1.89,2.67q0,39.89,0,79.79c0,.8.09,1.59.15,2.48,11.37.75,18.14,6.8,21.13,17.57,3.09-10.41,9.43-17.06,20.69-17.32,11.86-.28,18.75,6.31,22.07,17.51C109.26,134.21,114.76,129.54,127.35,127.33Zm37.44-42.12H133.06C141.61,88.06,146.85,93.8,149,103,151.05,93.66,156.43,88.17,164.79,85.21ZM5.21,85.1c4,1.34,7.72,3.34,10.23,6.64s4.23,7,6,10c1.74-8.08,7.2-13.7,15.72-16.64ZM132.89,42.57c8.54,2.92,13.91,8.65,16.11,17.9,2.08-9.44,7.67-14.92,16-17.9Zm-127.72,0c8.55,3,13.83,8.69,16,17.76,2.1-9.22,7.58-14.8,15.91-17.76Zm160.15,85.23H132.56c9,2.83,14.25,8.47,16.43,17.66C151.07,136.18,156.44,130.71,165.32,127.85Zm-160.48,0c9,3,14.33,8.64,16.3,17.75,2.35-9.53,6.45-14,16.22-17.75Z"/></g></g></svg>