<svg xmlns="http://www.w3.org/2000/svg" viewBox="0 0 161.9 174.38"><g id="Layer_2" data-name="Layer 2"><g id="Layer_1-2" data-name="Layer 1"><path d="M3.52,95.15H0V82.37l3.25-.28c.57-4.38,1-8.82,1.75-13.19C9.65,43.47,22,23.46,45.77,11.64,54.55,7.27,64,5.22,74,4.34L74.29,0H86.81c.11,1.43.22,2.81.33,4.16,43.49,3.07,68.36,37.53,70.22,77.91l4.54.24V95.07h-4.44c-.64,4.45-1.09,8.71-1.87,12.91-5.57,29.84-25.23,53.5-55.77,60.78-3.13.75-6.34,1.23-9.53,1.7s-3.22.39-3.4,3.92H74.06c1.16-4-1.44-3.62-4-4C38,165.94,17.2,148,7.62,117.18c-1.93-6.2-2.5-12.81-3.69-19.24C3.78,97.13,3.69,96.3,3.52,95.15ZM74,9.08A66.59,66.59,0,0,0,27.76,30.51C14.6,45.14,9.07,62.7,7.92,82.25h4.59v13H8.2c2.22,42.08,31.73,69.79,66,70.73v-4.14H86.86c.08,1.56.16,2.92.23,4.27,43.13-2.81,65.37-40.37,65.21-70.84l-3-.17V82.34l3.23-.3c-1.16-39.61-26.69-70.85-65.3-73l-.44,3.34H74.3Z"/><path d="M137.56,82.21h4.52V95.06h-4.43c-.69,4.11-1.17,8-2,11.87-4,17.86-12.86,32.34-29.69,40.68-5.11,2.54-10.89,3.81-16.46,5.25-1.93.49-2.79,1-2.53,2.93a7.19,7.19,0,0,1-.12,1.41H74.47c-.84-4-.86-3.88-5.1-4.65-16.44-3-28.65-12-37-26.4C27.14,117,24.62,107,23.53,96.61c0-.4-.1-.8-.17-1.32l-3.64-.22V82.33l3.33-.22c.63-4.26,1.05-8.54,1.93-12.72C28.6,52,36.84,37.63,52.66,28.5a51.24,51.24,0,0,1,18.47-6.2c.9-.13,1.78-.35,2.86-.56l.31-4.32H86.69c.09.15.25.27.25.4.11,3.9.1,3.91,4.16,4.7,22,4.26,35.72,17.84,42.42,38.74,1.93,6,2.51,12.46,3.7,18.7C137.34,80.61,137.42,81.26,137.56,82.21Zm-109.72,13c1.64,16.19,6.61,30.5,18.68,41.51A46.74,46.74,0,0,0,74,148.7l.32-4H86.89l.21,3.79c26.11-2.07,44.42-25.5,45.57-53.2l-3.2-.22V82.35L133,82c-2.37-34.78-22.48-53-45.79-55.47l-.4,3.23H74.34l-.43-3.31a46.82,46.82,0,0,0-32.1,16.82c-9.32,11.17-13.17,24.4-14,38.8l4.52.2V95.19Z"/></g></g></svg>