<svg xmlns="http://www.w3.org/2000/svg" viewBox="0 0 144.97 148.25"><g id="Layer_2" data-name="Layer 2"><g id="Layer_1-2" data-name="Layer 1"><path d="M47.07,144.53l6.19-3.75.31.34-6.67,7.13c-2.51-2.72-5-5.35-7.4-8Q20.29,119.12,1.07,98a3.09,3.09,0,0,1-.65-3.92c9.64-22,19.19-44.05,28.86-66a7.73,7.73,0,0,1,3-3.37C45.78,16.8,59.37,9,72.94,1.2c.5-.29,1-.79,1.52-.8a14.61,14.61,0,0,1,2.67.45c-.32.81-.42,1.87-1,2.38C65.22,12.84,54.25,22.37,43.34,32a7.43,7.43,0,0,0-2.05,3Q28.74,71.46,16.35,108a2.89,2.89,0,0,0,.26,2.39q14.85,16.95,29.85,33.8C46.56,144.32,46.75,144.36,47.07,144.53Z"/><path d="M67.07,68.28c3.61-3.25,7-6.25,10.36-9.35,1.23-1.15,2.11-1.21,3.27.1,2.25,2.55,4.64,5,7,7.54L70.66,80.9c-3.13-3.54-6.15-6.92-9.15-10.33-3.24-3.68-6.5-7.33-9.62-11.11a3.23,3.23,0,0,1-.46-2.74q7-17,14.29-33.87a5,5,0,0,1,2.09-2.24Q85.75,10.67,103.75.87a8.25,8.25,0,0,1,10,2.18C124.11,16.14,134.46,29.21,145,42.5L110.91,79.07l-.41-.25q3.07-8.22,6.15-16.43c3.12-8.29,6.28-16.55,9.32-24.87a3.77,3.77,0,0,0-.21-3.11c-8.12-9.54-16.36-19-24.77-28.67C97.54,7.81,94.09,9.87,90.66,12,83.43,16.31,76.18,20.65,69,25.11a5.94,5.94,0,0,0-2.28,2.7c-3.06,7.86-6,15.76-8.94,23.67a3,3,0,0,0-.07,2.27C60.78,58.67,64,63.5,67.07,68.28Z"/><path d="M54.35,139.94c18.7-20.26,37-40.06,55.25-59.87l.51.25c-.33.93-.65,1.86-1,2.78-3.31,8.91-6.59,17.83-10,26.72a5.72,5.72,0,0,1-2,2.67Q76.42,126.1,55.54,139.57A9.85,9.85,0,0,1,54.35,139.94Z"/></g></g></svg>