<svg xmlns="http://www.w3.org/2000/svg" viewBox="0 0 133.25 132.95"><g id="Layer_2" data-name="Layer 2"><g id="Layer_1-2" data-name="Layer 1"><path d="M66.79.07c11.67,0,23.34.26,35-.06a30.89,30.89,0,0,1,31.28,27,28.93,28.93,0,0,1,.15,3.49c0,24.34.09,48.69-.06,73-.1,15.63-14.09,29.3-29.75,29.34-23.91,0-47.83-.29-71.74.11C15,133.23-.12,119.17,0,102.24c.17-24.68-.06-49.36.24-74C.41,14,13.86.58,28.05.23,41-.08,53.88.17,66.79.17ZM67,26.64H32.73c-4.43,0-6,1.55-6,6v67.76c0,4.11,1.8,5.93,5.89,5.93h67.95c4.26,0,6-1.63,6-5.8q0-34.14,0-68.27c0-4-1.62-5.57-5.59-5.57Q83.95,26.63,67,26.64Z"/></g></g></svg>