<svg xmlns="http://www.w3.org/2000/svg" viewBox="0 0 154.09 162.16"><defs><style>.cls-1{fill:#231f20;}</style></defs><g id="Layer_2" data-name="Layer 2"><g id="Layer_1-2" data-name="Layer 1"><path class="cls-1" d="M0,63.71q0-30.3,14.48-47T54.8,0Q80.63,0,95.11,16.71t14.48,47V98.45q0,31.2-14.48,47.45T54.8,162.16q-25.84,0-40.32-16.26T0,98.45Zm54.8,81.08q18,0,27.06-12.37t9-35.3V65q0-21.38-9-34.52T54.8,17.37q-18,0-27.07,13.15T18.71,65V97.12q0,22.93,9,35.3T54.8,144.79Z"/><path class="cls-1" d="M44.5,63.71q0-30.3,14.47-47T99.29,0q25.84,0,40.32,16.71t14.48,47V98.45q0,31.2-14.48,47.45T99.29,162.16q-25.85,0-40.32-16.26T44.5,98.45Zm54.79,81.08q18,0,27.06-12.37t9-35.3V65q0-21.38-9-34.52T99.29,17.37q-18,0-27.06,13.15T63.21,65V97.12q0,22.93,9,35.3T99.29,144.79Z"/></g></g></svg>