<svg xmlns="http://www.w3.org/2000/svg" viewBox="0 0 70.75 117.94"><defs><style>.cls-1{fill:#fff;}</style></defs><g id="Layer_2" data-name="Layer 2"><g id="Layer_3" data-name="Layer 3"><path class="cls-1" d="M1.67,33.7a6,6,0,0,1,0-8.35,5.87,5.87,0,0,1,4.2-1.73,5.91,5.91,0,0,1,0,11.81A5.81,5.81,0,0,1,1.67,33.7Zm0,11.82A6,6,0,0,1,0,41.31a5.75,5.75,0,0,1,1.67-4.15,5.9,5.9,0,0,1,10.08,4.15A5.83,5.83,0,0,1,10,45.52a5.71,5.71,0,0,1-4.15,1.67,6,6,0,0,1-4.2-1.71Zm0,11.75A5.75,5.75,0,0,1,0,53.12a5.94,5.94,0,0,1,1.67-4.2,5.81,5.81,0,0,1,4.2-1.73A5.63,5.63,0,0,1,10,48.92a5.83,5.83,0,0,1,1.73,4.2A5.9,5.9,0,0,1,1.67,57.27Zm0,23.62A5.81,5.81,0,0,1,0,76.69a5.71,5.71,0,0,1,1.67-4.15,5.87,5.87,0,0,1,4.2-1.73,5.91,5.91,0,0,1,0,11.81A5.81,5.81,0,0,1,1.67,80.89Zm0,11.81a6,6,0,0,1,0-8.35,5.87,5.87,0,0,1,4.2-1.73,5.91,5.91,0,0,1,0,11.81A5.81,5.81,0,0,1,1.67,92.7ZM13.48,21.89a5.9,5.9,0,0,1,0-8.35,5.75,5.75,0,0,1,4.21-1.73,5.91,5.91,0,1,1-4.21,10.08Zm0,23.63a5.91,5.91,0,1,1,8.35,0,5.73,5.73,0,0,1-4.14,1.67,5.83,5.83,0,0,1-4.21-1.71Zm0,23.56a5.68,5.68,0,0,1-1.73-4.15A5.92,5.92,0,0,1,17.64,59h.05a5.62,5.62,0,0,1,4.14,1.73,5.68,5.68,0,0,1,1.73,4.2,5.9,5.9,0,0,1-5.87,5.88A5.71,5.71,0,0,1,13.48,69.08Zm0,35.44a5.91,5.91,0,1,1,8.35,0,5.73,5.73,0,0,1-4.14,1.67,5.83,5.83,0,0,1-4.21-1.71ZM25.29,10.08a5.68,5.68,0,0,1-1.73-4.15A5.92,5.92,0,0,1,29.45,0h.05a5.68,5.68,0,0,1,4.15,1.73,5.7,5.7,0,0,1,1.72,4.2,5.89,5.89,0,0,1-5.87,5.88A5.75,5.75,0,0,1,25.29,10.08Zm0,11.81a5.9,5.9,0,0,1,0-8.35,5.91,5.91,0,0,1,8.36,0h0a5.65,5.65,0,0,1,1.72,4.15,5.7,5.7,0,0,1-1.72,4.2,5.91,5.91,0,0,1-8.36,0Zm0,23.63a5.87,5.87,0,0,1-1.73-4.21,5.7,5.7,0,0,1,1.73-4.15,5.91,5.91,0,0,1,8.36,0h0a5.65,5.65,0,0,1,1.72,4.15,5.81,5.81,0,0,1-1.72,4.17,6.06,6.06,0,0,1-8.36,0Zm0,11.75a5.68,5.68,0,0,1-1.73-4.15,5.91,5.91,0,0,1,10.09-4.2h0a5.82,5.82,0,0,1,1.72,4.2A5.89,5.89,0,0,1,29.5,59,5.75,5.75,0,0,1,25.29,57.27Zm0,23.62a5.9,5.9,0,0,1,0-8.35,5.91,5.91,0,0,1,8.36,0h0a5.65,5.65,0,0,1,1.72,4.15,5.7,5.7,0,0,1-1.72,4.2,5.91,5.91,0,0,1-8.36,0Zm0,23.63a5.87,5.87,0,0,1-1.73-4.21,5.7,5.7,0,0,1,1.73-4.15,5.91,5.91,0,0,1,8.36,0h0a5.65,5.65,0,0,1,1.72,4.15,5.81,5.81,0,0,1-1.72,4.17,6.06,6.06,0,0,1-8.36,0Zm0,11.69a5.68,5.68,0,0,1-1.73-4.15,5.81,5.81,0,0,1,5.75-5.87h.19a5.79,5.79,0,0,1,5.87,5.87,5.89,5.89,0,0,1-5.87,5.88A5.75,5.75,0,0,1,25.29,116.21ZM37.15,10.08a5.68,5.68,0,0,1-1.73-4.15,5.71,5.71,0,0,1,1.73-4.2,5.91,5.91,0,0,1,8.36,0h0a5.71,5.71,0,0,1,1.73,4.2,5.64,5.64,0,0,1-1.73,4.15,5.91,5.91,0,0,1-8.36,0Zm0,23.62a5.91,5.91,0,1,1,4.1,1.78A5.65,5.65,0,0,1,37.15,33.7Zm0,11.78a5.85,5.85,0,0,1,4.1-10,5.74,5.74,0,0,1,4.21,1.73,5.66,5.66,0,0,1,1.73,4.15,5.81,5.81,0,0,1-5.74,5.88h-.2A5.77,5.77,0,0,1,37.15,45.48Zm0,23.56a5.9,5.9,0,0,1,0-8.35,5.91,5.91,0,0,1,8.36,0h0a5.71,5.71,0,0,1,1.73,4.2A5.64,5.64,0,0,1,45.51,69a5.91,5.91,0,0,1-8.36,0Zm0,11.81a5.71,5.71,0,0,1-1.73-4.2,5.92,5.92,0,0,1,5.88-5.88,5.74,5.74,0,0,1,4.21,1.73,5.66,5.66,0,0,1,1.73,4.15,5.9,5.9,0,0,1-5.89,5.93H41.3a5.66,5.66,0,0,1-4.15-1.69Zm0,11.81a5.91,5.91,0,1,1,4.1,1.82,5.65,5.65,0,0,1-4.1-1.78Zm0,23.51A5.68,5.68,0,0,1,35.42,112a5.87,5.87,0,0,1,1.73-4.2,6.08,6.08,0,0,1,8.36,0,5.87,5.87,0,0,1,1.73,4.2,5.64,5.64,0,0,1-1.73,4.15,5.91,5.91,0,0,1-8.36,0ZM48.91,10.08a5.67,5.67,0,0,1-1.72-4.15,5.7,5.7,0,0,1,1.72-4.2A5.7,5.7,0,0,1,53.06,0a5.83,5.83,0,0,1,4.21,1.73A5.71,5.71,0,0,1,59,5.93a5.64,5.64,0,0,1-1.73,4.15,5.83,5.83,0,0,1-4.21,1.73A5.7,5.7,0,0,1,48.91,10.08Zm0,11.81a5.7,5.7,0,0,1-1.72-4.2,5.9,5.9,0,0,1,10.08-4.15A5.66,5.66,0,0,1,59,17.69a5.71,5.71,0,0,1-1.73,4.2,5.79,5.79,0,0,1-4.21,1.73A5.66,5.66,0,0,1,48.91,21.89Zm0,35.38a5.67,5.67,0,0,1-1.72-4.15,5.9,5.9,0,0,1,1.72-4.2,5.7,5.7,0,0,1,4.15-1.73A5.92,5.92,0,0,1,59,53.07v0a5.64,5.64,0,0,1-1.73,4.15A5.83,5.83,0,0,1,53.06,59,5.7,5.7,0,0,1,48.91,57.27Zm0,35.43a5.91,5.91,0,1,1,8.37,0h0a5.79,5.79,0,0,1-4.21,1.73A5.66,5.66,0,0,1,48.91,92.7Zm0,11.82a5.82,5.82,0,0,1-1.72-4.21,5.9,5.9,0,0,1,10.08-4.15A5.66,5.66,0,0,1,59,100.31a5.87,5.87,0,0,1-1.73,4.21,6,6,0,0,1-4.21,1.67,5.77,5.77,0,0,1-4.15-1.71ZM60.67,33.7a6,6,0,0,1,0-8.35,5.91,5.91,0,1,1,0,8.35Zm0,11.82A6,6,0,0,1,59,41.31a5.75,5.75,0,0,1,1.67-4.15A5.91,5.91,0,0,1,69,45.52a5.71,5.71,0,0,1-4.15,1.67,6,6,0,0,1-4.2-1.71Zm0,11.75A5.75,5.75,0,0,1,59,53.12a5.94,5.94,0,0,1,1.67-4.2,5.81,5.81,0,0,1,4.2-1.73A5.63,5.63,0,0,1,69,48.92a5.83,5.83,0,0,1,1.73,4.2,5.9,5.9,0,0,1-10.08,4.15Zm0,11.81A5.71,5.71,0,0,1,59,64.93,5.82,5.82,0,0,1,64.69,59h.18a5.91,5.91,0,0,1,5.88,5.93,5.9,5.9,0,0,1-10.08,4.15Zm0,11.81A5.81,5.81,0,0,1,59,76.69a5.71,5.71,0,0,1,1.67-4.15,5.91,5.91,0,1,1,0,8.35Z"/></g></g></svg>