<svg xmlns="http://www.w3.org/2000/svg" viewBox="0 0 101.5 109.35"><defs><style>.cls-1{fill:#fff;}</style></defs><g id="Layer_2" data-name="Layer 2"><g id="Layer_5" data-name="Layer 5"><path class="cls-1" d="M0,51.61H2.4C3.59,23.81,21,4.66,46.55,2.93V0h8V2.93C80.08,4.79,97,23.41,98.44,51.61h3.06v8H98.44C97,86.34,79.44,105.09,54.55,107v2.4h-8V107C21.41,105.22,4.12,86.74,2.4,59.61H0Zm8,0v8H5.07c1.73,25.67,18,43,41.5,44.68v-2.92h8v2.92C78,102.43,94.33,84.74,95.8,59.61H93.54v-8H95.8c-1.47-26.74-17.16-44.16-41.23-46V8h-8V5.59c-24.07,1.73-40.3,19.68-41.5,46Zm4.39,0h2.39c1.07-21.28,13.57-36,31.79-37.77V10.91h8V14C72.79,15.83,84.76,30.2,86.09,51.61h3.06v8H86.09C84.63,80,72.39,94.05,54.57,95.91v2.66h-8V96.08c-18-1.86-30.19-15.83-31.79-36.44H12.39Zm8,0v8H17.46c1.6,19,12.64,31.92,29.13,33.78V90.58h8v2.65C70.81,91.37,82,78.47,83.45,59.59H81.19v-8h2.26c-1.2-20-12.1-33.12-28.86-35v2.26h-8V16.5C29.83,18.23,18.53,31.79,17.46,51.61Z"/></g></g></svg>