<svg xmlns="http://www.w3.org/2000/svg" viewBox="0 0 87.95 88.01"><defs><style>.cls-1{fill:#fff;}</style></defs><g id="Layer_2" data-name="Layer 2"><g id="Layer_6" data-name="Layer 6"><path class="cls-1" d="M0,22V0A11,11,0,0,1,11,11,11,11,0,0,1,22,0H66A11,11,0,0,1,77,11,11,11,0,0,1,88,0V22h-22a11,11,0,0,1-11-11A11,11,0,0,1,44,22h0a11,11,0,0,1-11-11A10.9,10.9,0,0,1,22.11,22H0ZM0,44V22A11,11,0,0,1,11,33,11,11,0,0,1,22,22h0V44ZM0,66V44A11,11,0,0,1,11,55,11,11,0,0,1,22,44V66ZM0,88V66A11,11,0,0,1,11,77a11,11,0,0,1,22,0A11,11,0,0,1,44,66a10.73,10.73,0,0,1,7.78,3.22A10.61,10.61,0,0,1,55,77a11,11,0,0,1,22,0A11,11,0,0,1,88,66V88ZM65.92,44V22a11,11,0,0,1,11,11h0a11,11,0,0,1,11-11h0V44Zm0,22V44a11,11,0,0,1,11,11,11,11,0,0,1,11-11V66Z"/></g></g></svg>