<svg xmlns="http://www.w3.org/2000/svg" viewBox="0 0 87.58 100.12"><defs><style>.cls-1{fill:#fff;}</style></defs><g id="Layer_2" data-name="Layer 2"><g id="Layer_8" data-name="Layer 8"><path class="cls-1" d="M6.22,100.12A6.21,6.21,0,0,1,0,93.94v-25a6.18,6.18,0,0,1,1.81-4.45,6,6,0,0,1,4.41-1.82H18.76V25a6.21,6.21,0,0,1-6.27-6.13V12.54h62.6V62.6h6.27a6,6,0,0,1,4.4,1.82,6.15,6.15,0,0,1,1.82,4.45v25a6.21,6.21,0,0,1-6.2,6.22h0Zm62.6-31.25V18.76H31.25V25H25V62.61h6.22v6.27ZM67.94,7.15a1.21,1.21,0,1,1,.88.38,1.23,1.23,0,0,1-.88-.38ZM79.6,8l-4.51-1.7L79.6,4.56,81.36,0l1.71,4.56,4.51,1.71L83.07,8l-1.71,4.57Zm.83,11.72a1.38,1.38,0,0,1-.33-.93,1.3,1.3,0,0,1,.33-.88,1.38,1.38,0,0,1,.93-.33,1.14,1.14,0,0,1,1.21,1.07v.14a1.38,1.38,0,0,1-.33.93,1.3,1.3,0,0,1-.88.33,1.38,1.38,0,0,1-.93-.33Z"/></g></g></svg>